<mxfile host="65bd71144e">
    <diagram id="01_xcEH4UmA5kcshdU0a" name="Page-1">
        <mxGraphModel dx="1078" dy="1410" grid="1" gridSize="10" guides="1" tooltips="1" connect="1" arrows="1" fold="1" page="1" pageScale="1" pageWidth="850" pageHeight="1100" math="0" shadow="0">
            <root>
                <mxCell id="0"/>
                <mxCell id="1" parent="0"/>
                <mxCell id="22" value="" style="swimlane;startSize=0;fillColor=#f5f5f5;shadow=0;gradientColor=#FFFFFF;strokeColor=#666666;swimlaneFillColor=#FFFFFF;" parent="1" vertex="1">
                    <mxGeometry x="80" y="160" width="620" height="640" as="geometry"/>
                </mxCell>
                <mxCell id="4" value="Contenido audiovisual" style="swimlane;childLayout=stackLayout;resizeParent=1;resizeParentMax=0;horizontal=1;startSize=20;horizontalStack=0;html=1;" parent="22" vertex="1">
                    <mxGeometry x="190" y="40" width="380" height="500" as="geometry"/>
                </mxCell>
                <mxCell id="5" value="Materia 1" style="swimlane;startSize=20;horizontal=0;html=1;" parent="4" vertex="1">
                    <mxGeometry y="20" width="380" height="160" as="geometry"/>
                </mxCell>
                <mxCell id="57" value="" style="group" vertex="1" connectable="0" parent="5">
                    <mxGeometry x="60" y="30" width="280" height="90" as="geometry"/>
                </mxCell>
                <mxCell id="9" value="Clase 1" style="sketch=0;pointerEvents=1;shadow=0;dashed=0;html=1;strokeColor=none;fillColor=#505050;labelPosition=center;verticalLabelPosition=bottom;verticalAlign=top;outlineConnect=0;align=center;shape=mxgraph.office.concepts.video_play;fontColor=#000000;" parent="57" vertex="1">
                    <mxGeometry width="40" height="30" as="geometry"/>
                </mxCell>
                <mxCell id="10" value="Clase 2" style="sketch=0;pointerEvents=1;shadow=0;dashed=0;html=1;strokeColor=none;fillColor=#505050;labelPosition=center;verticalLabelPosition=bottom;verticalAlign=top;outlineConnect=0;align=center;shape=mxgraph.office.concepts.video_play;fontColor=#000000;" parent="57" vertex="1">
                    <mxGeometry x="80" width="40" height="30" as="geometry"/>
                </mxCell>
                <mxCell id="11" value="Clase 3" style="sketch=0;pointerEvents=1;shadow=0;dashed=0;html=1;strokeColor=none;fillColor=#505050;labelPosition=center;verticalLabelPosition=bottom;verticalAlign=top;outlineConnect=0;align=center;shape=mxgraph.office.concepts.video_play;fontColor=#000000;" parent="57" vertex="1">
                    <mxGeometry x="160" width="40" height="30" as="geometry"/>
                </mxCell>
                <mxCell id="13" value="Clase 4" style="sketch=0;pointerEvents=1;shadow=0;dashed=0;html=1;strokeColor=none;fillColor=#505050;labelPosition=center;verticalLabelPosition=bottom;verticalAlign=top;outlineConnect=0;align=center;shape=mxgraph.office.concepts.video_play;fontColor=#000000;" parent="57" vertex="1">
                    <mxGeometry x="240" width="40" height="30" as="geometry"/>
                </mxCell>
                <mxCell id="27" value="Clase 5" style="sketch=0;pointerEvents=1;shadow=0;dashed=0;html=1;strokeColor=none;fillColor=#505050;labelPosition=center;verticalLabelPosition=bottom;verticalAlign=top;outlineConnect=0;align=center;shape=mxgraph.office.concepts.video_play;fontColor=#000000;" parent="57" vertex="1">
                    <mxGeometry y="60" width="40" height="30" as="geometry"/>
                </mxCell>
                <mxCell id="28" value="Clase 6" style="sketch=0;pointerEvents=1;shadow=0;dashed=0;html=1;strokeColor=none;fillColor=#505050;labelPosition=center;verticalLabelPosition=bottom;verticalAlign=top;outlineConnect=0;align=center;shape=mxgraph.office.concepts.video_play;fontColor=#000000;" parent="57" vertex="1">
                    <mxGeometry x="80" y="60" width="40" height="30" as="geometry"/>
                </mxCell>
                <mxCell id="29" value="Clase 7" style="sketch=0;pointerEvents=1;shadow=0;dashed=0;html=1;strokeColor=none;fillColor=#505050;labelPosition=center;verticalLabelPosition=bottom;verticalAlign=top;outlineConnect=0;align=center;shape=mxgraph.office.concepts.video_play;fontColor=#000000;" parent="57" vertex="1">
                    <mxGeometry x="160" y="60" width="40" height="30" as="geometry"/>
                </mxCell>
                <mxCell id="30" value="Clase n..." style="sketch=0;pointerEvents=1;shadow=0;dashed=0;html=1;strokeColor=none;fillColor=#505050;labelPosition=center;verticalLabelPosition=bottom;verticalAlign=top;outlineConnect=0;align=center;shape=mxgraph.office.concepts.video_play;fontColor=#000000;" parent="57" vertex="1">
                    <mxGeometry x="240" y="60" width="40" height="30" as="geometry"/>
                </mxCell>
                <mxCell id="6" value="Materia 2" style="swimlane;startSize=20;horizontal=0;html=1;" parent="4" vertex="1">
                    <mxGeometry y="180" width="380" height="160" as="geometry"/>
                </mxCell>
                <mxCell id="58" value="" style="group" vertex="1" connectable="0" parent="6">
                    <mxGeometry x="60" y="25" width="280" height="90" as="geometry"/>
                </mxCell>
                <mxCell id="32" value="Clase 1" style="sketch=0;pointerEvents=1;shadow=0;dashed=0;html=1;strokeColor=none;fillColor=#505050;labelPosition=center;verticalLabelPosition=bottom;verticalAlign=top;outlineConnect=0;align=center;shape=mxgraph.office.concepts.video_play;fontColor=#000000;" parent="58" vertex="1">
                    <mxGeometry width="40" height="30" as="geometry"/>
                </mxCell>
                <mxCell id="33" value="Clase 2" style="sketch=0;pointerEvents=1;shadow=0;dashed=0;html=1;strokeColor=none;fillColor=#505050;labelPosition=center;verticalLabelPosition=bottom;verticalAlign=top;outlineConnect=0;align=center;shape=mxgraph.office.concepts.video_play;fontColor=#000000;" parent="58" vertex="1">
                    <mxGeometry x="80" width="40" height="30" as="geometry"/>
                </mxCell>
                <mxCell id="34" value="Clase 3" style="sketch=0;pointerEvents=1;shadow=0;dashed=0;html=1;strokeColor=none;fillColor=#505050;labelPosition=center;verticalLabelPosition=bottom;verticalAlign=top;outlineConnect=0;align=center;shape=mxgraph.office.concepts.video_play;fontColor=#000000;" parent="58" vertex="1">
                    <mxGeometry x="160" width="40" height="30" as="geometry"/>
                </mxCell>
                <mxCell id="35" value="Clase 4" style="sketch=0;pointerEvents=1;shadow=0;dashed=0;html=1;strokeColor=none;fillColor=#505050;labelPosition=center;verticalLabelPosition=bottom;verticalAlign=top;outlineConnect=0;align=center;shape=mxgraph.office.concepts.video_play;fontColor=#000000;" parent="58" vertex="1">
                    <mxGeometry x="240" width="40" height="30" as="geometry"/>
                </mxCell>
                <mxCell id="36" value="Clase 5" style="sketch=0;pointerEvents=1;shadow=0;dashed=0;html=1;strokeColor=none;fillColor=#505050;labelPosition=center;verticalLabelPosition=bottom;verticalAlign=top;outlineConnect=0;align=center;shape=mxgraph.office.concepts.video_play;fontColor=#000000;" parent="58" vertex="1">
                    <mxGeometry y="60" width="40" height="30" as="geometry"/>
                </mxCell>
                <mxCell id="37" value="Clase 6" style="sketch=0;pointerEvents=1;shadow=0;dashed=0;html=1;strokeColor=none;fillColor=#505050;labelPosition=center;verticalLabelPosition=bottom;verticalAlign=top;outlineConnect=0;align=center;shape=mxgraph.office.concepts.video_play;fontColor=#000000;" parent="58" vertex="1">
                    <mxGeometry x="80" y="60" width="40" height="30" as="geometry"/>
                </mxCell>
                <mxCell id="38" value="Clase 7" style="sketch=0;pointerEvents=1;shadow=0;dashed=0;html=1;strokeColor=#2D7600;fillColor=#60a917;labelPosition=center;verticalLabelPosition=bottom;verticalAlign=top;outlineConnect=0;align=center;shape=mxgraph.office.concepts.video_play;fontColor=#000000;" parent="58" vertex="1">
                    <mxGeometry x="160" y="60" width="40" height="30" as="geometry"/>
                </mxCell>
                <mxCell id="39" value="Clase n..." style="sketch=0;pointerEvents=1;shadow=0;dashed=0;html=1;strokeColor=none;fillColor=#505050;labelPosition=center;verticalLabelPosition=bottom;verticalAlign=top;outlineConnect=0;align=center;shape=mxgraph.office.concepts.video_play;fontColor=#000000;" parent="58" vertex="1">
                    <mxGeometry x="240" y="60" width="40" height="30" as="geometry"/>
                </mxCell>
                <mxCell id="7" value="Materia n..." style="swimlane;startSize=20;horizontal=0;html=1;" parent="4" vertex="1">
                    <mxGeometry y="340" width="380" height="160" as="geometry"/>
                </mxCell>
                <mxCell id="40" value="Clase 1" style="sketch=0;pointerEvents=1;shadow=0;dashed=0;html=1;strokeColor=none;fillColor=#505050;labelPosition=center;verticalLabelPosition=bottom;verticalAlign=top;outlineConnect=0;align=center;shape=mxgraph.office.concepts.video_play;fontColor=#000000;" parent="7" vertex="1">
                    <mxGeometry x="60" y="35" width="40" height="30" as="geometry"/>
                </mxCell>
                <mxCell id="41" value="Clase 2" style="sketch=0;pointerEvents=1;shadow=0;dashed=0;html=1;strokeColor=none;fillColor=#505050;labelPosition=center;verticalLabelPosition=bottom;verticalAlign=top;outlineConnect=0;align=center;shape=mxgraph.office.concepts.video_play;fontColor=#000000;" parent="7" vertex="1">
                    <mxGeometry x="140" y="35" width="40" height="30" as="geometry"/>
                </mxCell>
                <mxCell id="44" value="Clase 5" style="sketch=0;pointerEvents=1;shadow=0;dashed=0;html=1;strokeColor=none;fillColor=#505050;labelPosition=center;verticalLabelPosition=bottom;verticalAlign=top;outlineConnect=0;align=center;shape=mxgraph.office.concepts.video_play;fontColor=#000000;" parent="7" vertex="1">
                    <mxGeometry x="60" y="95" width="40" height="30" as="geometry"/>
                </mxCell>
                <mxCell id="45" value="Clase 6" style="sketch=0;pointerEvents=1;shadow=0;dashed=0;html=1;strokeColor=#2D7600;fillColor=#60a917;labelPosition=center;verticalLabelPosition=bottom;verticalAlign=top;outlineConnect=0;align=center;shape=mxgraph.office.concepts.video_play;fontColor=#000000;" parent="7" vertex="1">
                    <mxGeometry x="140" y="95" width="40" height="30" as="geometry"/>
                </mxCell>
                <mxCell id="63" value="" style="group" vertex="1" connectable="0" parent="7">
                    <mxGeometry x="60" y="35" width="280" height="90" as="geometry"/>
                </mxCell>
                <mxCell id="42" value="Clase 3" style="sketch=0;pointerEvents=1;shadow=0;dashed=0;html=1;strokeColor=none;fillColor=#505050;labelPosition=center;verticalLabelPosition=bottom;verticalAlign=top;outlineConnect=0;align=center;shape=mxgraph.office.concepts.video_play;fontColor=#000000;" parent="63" vertex="1">
                    <mxGeometry x="160" width="40" height="30" as="geometry"/>
                </mxCell>
                <mxCell id="43" value="Clase 4" style="sketch=0;pointerEvents=1;shadow=0;dashed=0;html=1;strokeColor=none;fillColor=#505050;labelPosition=center;verticalLabelPosition=bottom;verticalAlign=top;outlineConnect=0;align=center;shape=mxgraph.office.concepts.video_play;fontColor=#000000;" parent="63" vertex="1">
                    <mxGeometry x="240" width="40" height="30" as="geometry"/>
                </mxCell>
                <mxCell id="46" value="Clase 7" style="sketch=0;pointerEvents=1;shadow=0;dashed=0;html=1;strokeColor=none;fillColor=#505050;labelPosition=center;verticalLabelPosition=bottom;verticalAlign=top;outlineConnect=0;align=center;shape=mxgraph.office.concepts.video_play;fontColor=#000000;" parent="63" vertex="1">
                    <mxGeometry x="160" y="60" width="40" height="30" as="geometry"/>
                </mxCell>
                <mxCell id="47" value="Clase n..." style="sketch=0;pointerEvents=1;shadow=0;dashed=0;html=1;strokeColor=none;fillColor=#505050;labelPosition=center;verticalLabelPosition=bottom;verticalAlign=top;outlineConnect=0;align=center;shape=mxgraph.office.concepts.video_play;fontColor=#000000;" parent="63" vertex="1">
                    <mxGeometry x="240" y="60" width="40" height="30" as="geometry"/>
                </mxCell>
                <mxCell id="59" value="Clase 1" style="sketch=0;pointerEvents=1;shadow=0;dashed=0;html=1;strokeColor=none;fillColor=#505050;labelPosition=center;verticalLabelPosition=bottom;verticalAlign=top;outlineConnect=0;align=center;shape=mxgraph.office.concepts.video_play;fontColor=#000000;" vertex="1" parent="63">
                    <mxGeometry width="40" height="30" as="geometry"/>
                </mxCell>
                <mxCell id="60" value="Clase 5" style="sketch=0;pointerEvents=1;shadow=0;dashed=0;html=1;strokeColor=none;fillColor=#505050;labelPosition=center;verticalLabelPosition=bottom;verticalAlign=top;outlineConnect=0;align=center;shape=mxgraph.office.concepts.video_play;fontColor=#000000;" vertex="1" parent="63">
                    <mxGeometry y="60" width="40" height="30" as="geometry"/>
                </mxCell>
                <mxCell id="61" value="Clase 2" style="sketch=0;pointerEvents=1;shadow=0;dashed=0;html=1;strokeColor=none;fillColor=#505050;labelPosition=center;verticalLabelPosition=bottom;verticalAlign=top;outlineConnect=0;align=center;shape=mxgraph.office.concepts.video_play;fontColor=#000000;" vertex="1" parent="63">
                    <mxGeometry x="80" width="40" height="30" as="geometry"/>
                </mxCell>
                <mxCell id="62" value="Clase 6" style="sketch=0;pointerEvents=1;shadow=0;dashed=0;html=1;strokeColor=#2D7600;fillColor=#60a917;labelPosition=center;verticalLabelPosition=bottom;verticalAlign=top;outlineConnect=0;align=center;shape=mxgraph.office.concepts.video_play;fontColor=#000000;" vertex="1" parent="63">
                    <mxGeometry x="80" y="60" width="40" height="30" as="geometry"/>
                </mxCell>
                <mxCell id="56" value="" style="group" parent="22" vertex="1" connectable="0">
                    <mxGeometry x="160" y="580" width="320" height="30" as="geometry"/>
                </mxCell>
                <mxCell id="50" value="Duración por video" style="text;html=1;strokeColor=none;fillColor=none;align=center;verticalAlign=middle;whiteSpace=wrap;rounded=0;fontColor=#000000;fontSize=15;" parent="56" vertex="1">
                    <mxGeometry x="250" width="70" height="30" as="geometry"/>
                </mxCell>
                <mxCell id="51" value="=" style="text;html=1;strokeColor=none;fillColor=none;align=center;verticalAlign=middle;whiteSpace=wrap;rounded=0;fontColor=#000000;fontSize=20;" parent="56" vertex="1">
                    <mxGeometry x="60" width="60" height="30" as="geometry"/>
                </mxCell>
                <mxCell id="52" value="&lt;b&gt;Tiempo Invertido&lt;/b&gt;" style="text;html=1;strokeColor=none;fillColor=none;align=center;verticalAlign=middle;whiteSpace=wrap;rounded=0;fontColor=#000000;fontSize=15;" parent="56" vertex="1">
                    <mxGeometry width="60" height="30" as="geometry"/>
                </mxCell>
                <mxCell id="53" value="Videos visitados" style="text;html=1;strokeColor=none;fillColor=none;align=center;verticalAlign=middle;whiteSpace=wrap;rounded=0;fontColor=#000000;fontSize=15;" parent="56" vertex="1">
                    <mxGeometry x="120" width="60" height="30" as="geometry"/>
                </mxCell>
                <mxCell id="55" value="x" style="text;html=1;strokeColor=none;fillColor=none;align=center;verticalAlign=middle;whiteSpace=wrap;rounded=0;fontColor=#000000;fontSize=19;" parent="56" vertex="1">
                    <mxGeometry x="200" width="30" height="30" as="geometry"/>
                </mxCell>
                <mxCell id="64" value="" style="group" vertex="1" connectable="0" parent="22">
                    <mxGeometry x="18.75" y="250" width="150" height="95" as="geometry"/>
                </mxCell>
                <mxCell id="2" value="Usuario" style="verticalLabelPosition=bottom;html=1;verticalAlign=top;align=center;strokeColor=none;fillColor=#00BEF2;shape=mxgraph.azure.user;fontColor=#000000;" parent="64" vertex="1">
                    <mxGeometry x="51.25" y="45" width="47.5" height="50" as="geometry"/>
                </mxCell>
                <mxCell id="48" value="¿En qué clase se hablaba de emprendimiento?" style="text;html=1;strokeColor=none;fillColor=none;align=center;verticalAlign=middle;whiteSpace=wrap;rounded=0;fontColor=#000000;" parent="64" vertex="1">
                    <mxGeometry width="150" height="30" as="geometry"/>
                </mxCell>
            </root>
        </mxGraphModel>
    </diagram>
</mxfile>